<?xml version="1.0" encoding="UTF-8"?>
<!DOCTYPE svg PUBLIC "-//W3C//DTD SVG 1.1//EN" "http://www.w3.org/Graphics/SVG/1.1/DTD/svg11.dtd">
<svg version="1.1" xmlns="http://www.w3.org/2000/svg" xmlns:xlink="http://www.w3.org/1999/xlink" x="0" y="0" width="500" height="500" viewBox="0, 0, 500, 500">
  <g id="Layer_1">
    <path d="M421.6,101.2 L392.8,128.4 L356,128.4 L421.6,64.4 L486.4,130.8 L449.6,130.8 z" fill="#0A78C0"/>
    <path d="M421.6,182 L392.8,210.8 L356,210.8 L421.6,146 L486.4,210.8 L449.6,210.8 z" fill="#0A78C0"/>
    <path d="M364,250.8 C362.4,314.8 312.8,363.6 250.4,363.6 C187.2,363.6 136,313.2 136,250 C136,189.2 186.4,140.4 242.4,137.2 L242.4,14.8 C114.4,18 13.6,122.8 13.6,250.8 C13.6,381.2 120,485.2 250.4,485.2 C379.2,485.2 484.8,378.8 486.4,250.8 L364,250.8 z" fill="#0A78C0"/>
    <path d="M14.4,250.8 C14.4,381.2 120,485.2 250.4,485.2 C380,485.2 484.8,378.8 486.4,250.8 L364,250.8 C362.4,314.8 312.8,363.6 250.4,363.6 C187.2,363.6 136,313.2 136,250" fill="#065A82"/>
  </g>
</svg>
